<svg width="48" height="48" viewBox="0 0 48 48" fill="none" xmlns="http://www.w3.org/2000/svg">
<path d="M42.8534 9.96982C41.9957 8.18359 40.8311 6.87736 39.3636 6.03933L38.6003 5.65769C37.4278 5.15015 36.1098 4.93376 34.6462 4.99671C34.5754 5.00064 34.5006 5.00458 34.4259 5.01244C34.3472 5.01638 34.2646 5.02031 34.1859 5.02818C32.199 5.18949 30.0783 5.92523 27.82 7.22753C25.5655 8.53376 23.441 10.2452 21.458 12.3777C19.4711 14.5062 17.7439 16.8354 16.2764 19.3692C15.3164 21.0216 14.4941 22.7252 13.7977 24.4761C13.7937 24.4839 13.7937 24.4879 13.7898 24.4957C13.42 25.4203 13.0816 26.3724 12.7905 27.3285C12.6292 27.8518 12.4796 28.3751 12.3498 28.8905C12.3459 28.8983 12.3459 28.9062 12.3459 28.9141C11.7793 31.1292 11.5039 33.2774 11.5039 35.3744C11.5039 37.9633 11.9288 40.1469 12.7905 41.9331C12.9636 42.2912 13.1485 42.6335 13.3452 42.9561C13.3846 43.019 13.42 43.0781 13.4593 43.1371C14.1951 44.2741 15.0921 45.1594 16.1505 45.7889L16.7721 46.0997L17.1892 46.3043H17.1931C18.4482 46.8118 19.8685 47.0007 21.458 46.8748C23.441 46.7135 25.5655 45.9777 27.82 44.6715C30.0783 43.3731 32.199 41.6538 34.1859 39.5253C36.1728 37.3967 37.896 35.0636 39.3636 32.5337C40.8311 29.9999 41.9957 27.3482 42.8534 24.5744C43.7072 21.8006 44.136 19.1213 44.136 16.5324C44.136 13.9436 43.7072 11.7521 42.8534 9.96982ZM36.1177 17.6301L35.5236 18.657L25.538 35.882L18.6016 31.9278L20.8875 27.9895L25.538 30.6413L34.7564 14.7383L36.0901 15.5016L36.4246 15.6905L37.0383 16.0406L36.1177 17.6301Z" fill="#262626" stroke="#B9B9B9" stroke-width="0.196721" stroke-linecap="round" stroke-linejoin="round"/>
<path d="M37.0383 16.0406L36.1176 17.6301L35.5235 18.657L25.538 35.8819L18.6016 31.9279L20.8875 27.9895L25.538 30.6413L34.7563 14.7383L36.0901 15.5016L36.4245 15.6905L37.0383 16.0406Z" fill="#262626" stroke="#B9B9B9" stroke-width="0.196721" stroke-linecap="round" stroke-linejoin="round"/>
<path d="M38.601 5.65766C37.4285 5.15012 36.1105 4.93373 34.6469 4.99668C34.5761 5.00062 34.5013 5.00455 34.4266 5.01242C34.3479 5.01635 34.2653 5.02029 34.1866 5.02816C32.1997 5.18947 30.079 5.92521 27.8207 7.2275C25.5662 8.53373 23.4416 10.2452 21.4587 12.3777C19.4718 14.5062 17.7446 16.8354 16.2771 19.3691C15.3171 21.0216 14.4948 22.7252 13.7984 24.476C13.7944 24.4839 13.7944 24.4878 13.7905 24.4957C13.4207 25.4203 13.0823 26.3724 12.7912 27.3285C12.6298 27.8518 12.4803 28.375 12.3505 28.8905C12.3466 28.8983 12.3466 28.9062 12.3466 28.9141C11.78 31.1291 11.5046 33.2773 11.5046 35.3744C11.5046 37.9632 11.9295 40.1469 12.7912 41.9331C12.9643 42.2911 13.1492 42.6334 13.3459 42.9561C13.3853 43.019 13.4207 43.078 13.46 43.137C14.1957 44.2741 15.0928 45.1593 16.1512 45.7889L8.2823 41.8544C7.22394 41.2249 6.32689 40.3397 5.59115 39.2026C5.35115 38.8288 5.12689 38.4236 4.9223 37.9987C4.06066 36.2124 3.63574 34.0288 3.63574 31.44C3.63574 29.335 3.91508 27.179 4.48164 24.956C4.61148 24.4406 4.76098 23.9173 4.9223 23.3941C5.21738 22.4301 5.55574 21.4741 5.92951 20.5416C6.62591 18.7908 7.44821 17.0872 8.40821 15.4347C9.87575 12.9009 11.603 10.5718 13.5898 8.44324C15.5728 6.31078 17.6974 4.5993 19.9518 3.29306C22.2102 1.99076 24.3308 1.25503 26.3177 1.09371C26.4712 1.08191 26.6285 1.07011 26.778 1.06224C28.2495 0.999288 29.5754 1.21962 30.7518 1.73109L31.4954 2.10486L38.601 5.65766Z" fill="#262626" stroke="#B9B9B9" stroke-width="0.196721" stroke-linecap="round" stroke-linejoin="round"/>
</svg>
