<svg width="48" height="48" viewBox="0 0 48 48" fill="none" xmlns="http://www.w3.org/2000/svg">
<path d="M6.01933 33.6594V22.3228L1.0791 19.4697V36.4747L15.8944 45.0284V39.3601L6.01933 33.6594Z" fill="#262626" stroke="#B9B9B9" stroke-width="0.269663" stroke-linecap="round" stroke-linejoin="round"/>
<path d="M35.6547 16.7568V33.7618L30.7145 30.9141V19.5775L20.834 13.8714V8.20312L35.6547 16.7568Z" fill="#262626" stroke="#B9B9B9" stroke-width="0.269663" stroke-linecap="round" stroke-linejoin="round"/>
<path d="M16.8058 16.9295L6.01933 22.3228L1.0791 19.4697L11.8656 14.0765L16.8058 16.9295Z" fill="#262626" stroke="#B9B9B9" stroke-width="0.269663" stroke-linecap="round" stroke-linejoin="round"/>
<path d="M46.4412 11.3636L41.1774 13.9955L35.6547 16.7569L20.834 8.20316L31.6205 2.80988L46.4412 11.3636Z" fill="#262626" stroke="#B9B9B9" stroke-width="0.269663" stroke-linecap="round" stroke-linejoin="round"/>
<path d="M46.4418 11.3636V28.3686L35.6553 33.7618V16.7569L41.1779 13.9955L46.4418 11.3636Z" fill="#262626" stroke="#B9B9B9" stroke-width="0.269663" stroke-linecap="round" stroke-linejoin="round"/>
<path d="M26.6801 33.9667V39.635L15.8936 45.0283V39.36L26.6801 33.9667Z" fill="#262626" stroke="#B9B9B9" stroke-width="0.269663" stroke-linecap="round" stroke-linejoin="round"/>
<path d="M26.6801 33.9667L15.8936 39.3599L6.01855 33.6592L16.8051 28.266L26.6801 33.9667Z" fill="#262626" stroke="#B9B9B9" stroke-width="0.269663" stroke-linecap="round" stroke-linejoin="round"/>
<path d="M16.8051 16.9294V28.266L6.01855 33.6593V22.3226L16.8051 16.9294Z" fill="#262626" stroke="#B9B9B9" stroke-width="0.269663" stroke-linecap="round" stroke-linejoin="round"/>
</svg>
