<svg width="739" height="151" viewBox="0 0 739 151" fill="none" xmlns="http://www.w3.org/2000/svg">
<path d="M69.2512 59.3131H57.5239V13.1698H41.5711V45.3592H11.8454V59.3291H0V32.6979H28.6214V0.23637C28.9318 0.212513 29.2172 0.185583 29.4858 0.160233C30.0282 0.109045 30.5024 0.0642984 30.9766 0.0642984C34.8603 0.0578252 38.7436 0.0559593 42.6267 0.0540935C50.7461 0.0501922 58.8649 0.0462912 66.9856 0.000271626C68.7622 -0.0117334 69.4182 0.368426 69.4101 2.29323C69.3484 16.1531 69.3521 30.0111 69.3557 43.8699C69.3569 48.3252 69.3581 52.7806 69.3571 57.2362C69.3571 57.6665 69.3284 58.0973 69.2971 58.5651C69.2813 58.8018 69.2648 59.0483 69.2512 59.3091V59.3131Z" fill="white"/>
<path d="M93.9689 83.7439V83.7479L93.9648 83.7439H93.9689Z" fill="white"/>
<path d="M93.9689 83.7439V72.159H143.294V45.4719H113.565V13.1383H97.844V59.3056H85.9334V0.204906H126.368V32.5424H155.343V119.371H126.364V151H85.9742V93.9121H97.6851V138.259H113.479V107.01H143.249V83.7439H93.9689Z" fill="white"/>
<path d="M0.0570124 72.1751H60.6452V83.676H11.988V106.89H41.404V138.223H57.3894V93.8642H69.1859V150.944H28.8373V119.483H0.0570124V72.1751Z" fill="white"/>
<path d="M69.4222 83.6277H85.1917V68.3493H69.4222V83.6277Z" fill="white"/>
<path d="M739 47.7184V36H724.434V47.7184H739Z" fill="white"/>
<path d="M737.795 59.1082H725.529V113.648H737.795V59.1082Z" fill="white"/>
<path fill-rule="evenodd" clip-rule="evenodd" d="M662.445 111.239C666.607 113.648 671.17 114.853 676.135 114.853C680.662 114.853 684.458 113.977 687.525 112.224C690.664 110.399 693.147 108.063 694.972 105.215C696.87 102.368 698.258 99.3013 699.134 96.0157V100.725C699.134 102.55 699.207 104.485 699.353 106.529C699.499 108.501 699.645 110.18 699.791 111.567L700.01 113.648H711.4V59.1082H699.134V75.0222C698.879 73.9992 698.587 73.0023 698.258 72.0313C696.797 67.7236 694.352 64.2921 690.92 61.7367C687.488 59.1812 682.852 57.9035 677.011 57.9035C671.754 57.9035 667.009 59.1082 662.774 61.5176C658.539 63.927 655.181 67.2856 652.698 71.5933C650.216 75.8279 648.975 80.7927 648.975 86.4877C648.975 92.0366 650.179 96.9649 652.589 101.273C655.071 105.507 658.357 108.829 662.445 111.239ZM699.134 86.4877C699.134 89.9922 698.367 93.1318 696.834 95.9062C695.374 98.6807 693.183 100.871 690.263 102.477C687.415 104.011 683.947 104.777 679.859 104.777C676.281 104.777 673.105 104.011 670.331 102.477C667.556 100.944 665.366 98.7902 663.76 96.0157C662.226 93.2413 661.46 90.0653 661.46 86.4877C661.46 81.0118 663.066 76.5581 666.278 73.1265C669.491 69.695 674.018 67.9792 679.859 67.9792C683.947 67.9792 687.415 68.7458 690.263 70.279C693.11 71.7393 695.301 73.8566 696.834 76.6311C698.367 79.3325 699.134 82.618 699.134 86.4877Z" fill="white"/>
<path d="M639.329 101.82V113.648H624.764V101.82H639.329Z" fill="white"/>
<path d="M601.947 59.1082H589.791V113.648H601.947V83.2918C602.627 81.6211 603.577 79.9119 604.795 78.1643C606.474 75.7549 608.701 73.7106 611.475 72.0313C614.323 70.3521 617.718 69.5124 621.66 69.5124V57.9035C618.521 57.9035 615.783 58.4876 613.446 59.6558C611.183 60.824 609.248 62.3573 607.642 64.2556C606.109 66.0809 604.868 67.9792 603.918 69.9505C603.042 71.9218 602.385 73.7471 601.947 75.4264V59.1082Z" fill="white"/>
<path fill-rule="evenodd" clip-rule="evenodd" d="M541.163 114.853C536.198 114.853 531.635 113.648 527.473 111.239C523.385 108.829 520.099 105.507 517.617 101.273C515.207 96.9649 514.003 92.0366 514.003 86.4877C514.003 80.7927 515.244 75.8279 517.726 71.5933C520.209 67.2856 523.567 63.927 527.802 61.5176C532.037 59.1082 536.782 57.9035 542.039 57.9035C547.88 57.9035 552.516 59.1812 555.948 61.7367C559.38 64.2921 561.825 67.7236 563.286 72.0313C563.615 73.0023 563.907 73.9992 564.162 75.022V59.1082H576.428V113.648H565.038L564.819 111.567C564.673 110.18 564.527 108.501 564.381 106.529C564.235 104.485 564.162 102.55 564.162 100.725V96.0157C563.286 99.3013 561.898 102.368 560 105.215C558.175 108.063 555.692 110.399 552.553 112.224C549.486 113.977 545.69 114.853 541.163 114.853ZM561.862 76.6311C563.395 79.3325 564.162 82.618 564.162 86.4877C564.162 89.9922 563.395 93.1318 561.862 95.9062C560.402 98.6807 558.211 100.871 555.291 102.477C552.443 104.011 548.975 104.777 544.887 104.777C541.309 104.777 538.133 104.011 535.359 102.477C532.584 100.944 530.394 98.7902 528.788 96.0157C527.254 93.2413 526.488 90.0653 526.488 86.4877C526.488 81.0118 528.094 76.5581 531.306 73.1265C534.519 69.695 539.046 67.9792 544.887 67.9792C548.975 67.9792 552.443 68.7458 555.291 70.279C558.138 71.7393 560.329 73.8566 561.862 76.6311Z" fill="white"/>
<path d="M482.737 59.1082H469.595V69.0743H482.737V113.648H495.003V69.0743H508.145V59.1082H495.003V44.4328H482.737V59.1082Z" fill="white"/>
<path fill-rule="evenodd" clip-rule="evenodd" d="M424.8 114.853C419.836 114.853 415.272 113.648 411.111 111.239C407.022 108.829 403.736 105.507 401.254 101.273C398.845 96.9649 397.64 92.0366 397.64 86.4877C397.64 80.7927 398.881 75.8279 401.364 71.5933C403.846 67.2856 407.205 63.927 411.439 61.5176C415.674 59.1082 420.42 57.9035 425.677 57.9035C431.517 57.9035 436.154 59.1812 439.585 61.7367C443.017 64.2921 445.463 67.7236 446.923 72.0313C447.252 73.0023 447.544 73.9992 447.799 75.0222V59.1082H460.065V113.648H448.675L448.456 111.567C448.31 110.18 448.164 108.501 448.018 106.529C447.872 104.485 447.799 102.55 447.799 100.725V96.0157C446.923 99.3013 445.536 102.368 443.637 105.215C441.812 108.063 439.33 110.399 436.19 112.224C433.124 113.977 429.327 114.853 424.8 114.853ZM445.499 95.9062C447.033 93.1318 447.799 89.9922 447.799 86.4877C447.799 82.618 447.033 79.3325 445.499 76.6311C443.966 73.8566 441.776 71.7393 438.928 70.279C436.081 68.7458 432.613 67.9792 428.524 67.9792C422.683 67.9792 418.156 69.695 414.944 73.1265C411.731 76.5581 410.125 81.0118 410.125 86.4877C410.125 90.0653 410.892 93.2413 412.425 96.0157C414.031 98.7902 416.221 100.944 418.996 102.477C421.77 104.011 424.946 104.777 428.524 104.777C432.613 104.777 436.081 104.011 438.928 102.477C441.849 100.871 444.039 98.6807 445.499 95.9062Z" fill="white"/>
<path d="M363.93 99.717L380.6 59.1082H393.851L369.757 113.648H358.149L334.383 59.1082H347.744L363.93 99.717Z" fill="white"/>
<path fill-rule="evenodd" clip-rule="evenodd" d="M318.347 95.6872H330.066C329.482 99.4108 328.021 102.733 325.685 105.653C323.422 108.501 320.319 110.764 316.376 112.443C312.433 114.05 307.724 114.853 302.248 114.853C296.042 114.853 290.493 113.721 285.602 111.458C280.71 109.121 276.877 105.836 274.102 101.601C271.328 97.3664 269.941 92.3286 269.941 86.4877C269.941 80.7197 271.291 75.6819 273.993 71.3742C276.694 67.0665 280.418 63.7445 285.164 61.4081C289.982 59.0717 295.531 57.9035 301.81 57.9035C308.308 57.9035 313.711 59.0717 318.019 61.4081C322.4 63.6715 325.649 67.103 327.766 71.7028C329.883 76.2295 330.759 81.9609 330.394 88.8971H282.316C282.681 91.9636 283.667 94.738 285.273 97.2204C286.952 99.6298 289.216 101.528 292.063 102.915C294.911 104.23 298.233 104.887 302.029 104.887C306.264 104.887 309.805 104.047 312.652 102.368C315.573 100.688 317.471 98.4616 318.347 95.6872ZM301.482 67.7601C296.517 67.7601 292.428 69.0013 289.216 71.4837C286.003 73.8931 283.922 76.9961 282.973 80.7927H318.128C317.836 76.7041 316.194 73.5281 313.2 71.2647C310.207 68.9283 306.3 67.7601 301.482 67.7601Z" fill="white"/>
<path fill-rule="evenodd" clip-rule="evenodd" d="M210.471 111.239C214.632 113.648 219.196 114.853 224.16 114.853C228.687 114.853 232.484 113.977 235.55 112.224C238.69 110.399 241.172 108.063 242.997 105.215C244.896 102.368 246.283 99.3013 247.159 96.0157V100.725C247.159 102.55 247.232 104.485 247.378 106.529C247.524 108.501 247.67 110.18 247.816 111.567L248.035 113.648H259.425V59.1082H247.159V75.0221C246.904 73.9992 246.612 73.0023 246.283 72.0313C244.823 67.7236 242.377 64.2921 238.945 61.7367C235.514 59.1812 230.878 57.9035 225.037 57.9035C219.78 57.9035 215.034 59.1082 210.799 61.5176C206.565 63.927 203.206 67.2856 200.724 71.5933C198.241 75.8279 197 80.7927 197 86.4877C197 92.0366 198.205 96.9649 200.614 101.273C203.096 105.507 206.382 108.829 210.471 111.239ZM247.159 86.4877C247.159 89.9922 246.393 93.1318 244.859 95.9062C243.399 98.6807 241.209 100.871 238.288 102.477C235.441 104.011 231.973 104.777 227.884 104.777C224.306 104.777 221.13 104.011 218.356 102.477C215.582 100.944 213.391 98.7902 211.785 96.0157C210.252 93.2413 209.485 90.0653 209.485 86.4877C209.485 81.0118 211.091 76.5581 214.304 73.1265C217.516 69.695 222.043 67.9792 227.884 67.9792C231.973 67.9792 235.441 68.7458 238.288 70.279C241.136 71.7393 243.326 73.8566 244.859 76.6311C246.393 79.3325 247.159 82.618 247.159 86.4877Z" fill="white"/>
</svg>
