<svg width="48" height="48" viewBox="0 0 48 48" fill="none" xmlns="http://www.w3.org/2000/svg">
<path d="M40.0039 21.5703V32.8186L30.1992 38.4819V27.2298L32.562 25.8642L40.0039 21.5703Z" fill="#262626" stroke="#B9B9B9" stroke-width="0.186047" stroke-linecap="round" stroke-linejoin="round"/>
<path d="M15.4936 35.7209V46.973L8.05176 43.2521V32L15.4936 35.7209Z" fill="#262626" stroke="#B9B9B9" stroke-width="0.186047" stroke-linecap="round" stroke-linejoin="round"/>
<path d="M25.2988 30.0614V41.3098L15.4941 46.973V35.7209L17.857 34.3554L22.7574 31.5274L25.2988 30.0614Z" fill="#262626" stroke="#B9B9B9" stroke-width="0.186047" stroke-linecap="round" stroke-linejoin="round"/>
<path d="M25.2983 30.0614L22.7569 31.5274L17.8564 34.3553L15.4936 35.7209L8.05176 32L13.276 28.986L15.4936 30.0949L17.8564 28.7293L20.0741 27.4493L22.7569 28.7925L25.2983 30.0614Z" fill="#262626" stroke="#B9B9B9" stroke-width="0.186047" stroke-linecap="round" stroke-linejoin="round"/>
<path d="M25.2983 13.187L22.7569 14.653L17.8564 17.4809L15.4936 18.8465L8.05176 15.1256L17.8564 9.46606L22.7569 11.9182L25.2983 13.187Z" fill="#262626" stroke="#B9B9B9" stroke-width="0.186047" stroke-linecap="round" stroke-linejoin="round"/>
<path d="M15.4936 18.8465V30.0949L8.05176 26.374V15.1256L15.4936 18.8465Z" fill="#262626" stroke="#B9B9B9" stroke-width="0.186047" stroke-linecap="round" stroke-linejoin="round"/>
<path d="M30.1987 10.3553V21.6037L27.981 20.4949L25.2982 19.1553V13.187L22.7568 11.9181V6.6344L30.1987 10.3553Z" fill="#262626" stroke="#B9B9B9" stroke-width="0.186047" stroke-linecap="round" stroke-linejoin="round"/>
<path d="M40.0039 4.6958V15.9442L34.7797 18.9581L32.562 20.2381L30.1992 21.6037V10.3553L32.562 8.98975L40.0039 4.6958Z" fill="#262626" stroke="#B9B9B9" stroke-width="0.186047" stroke-linecap="round" stroke-linejoin="round"/>
<path d="M40.0034 4.69578L32.5615 8.98974L30.1987 10.3553L22.7568 6.63439L32.5615 0.974854L40.0034 4.69578Z" fill="#262626" stroke="#B9B9B9" stroke-width="0.186047" stroke-linecap="round" stroke-linejoin="round"/>
<path d="M25.2988 13.187V24.4353L24.9788 24.6214L22.7574 25.9014L20.0746 27.4493L17.857 28.7293L15.4941 30.0949V18.8465L17.857 17.4809L22.7574 14.653L25.2988 13.187Z" fill="#262626" stroke="#B9B9B9" stroke-width="0.186047" stroke-linecap="round" stroke-linejoin="round"/>
<path d="M30.1987 27.2298V38.4819L25.2982 36.0335V30.0614L22.7568 28.7926V25.9014L24.9782 24.6214L30.1987 27.2298Z" fill="#262626" stroke="#B9B9B9" stroke-width="0.186047" stroke-linecap="round" stroke-linejoin="round"/>
<path d="M40.0037 21.5702L32.5618 25.8642L30.199 27.2298L24.9785 24.6214L25.2986 24.4353V22.0428L27.9813 20.4949L30.199 21.6037L32.5618 20.2381L34.7795 18.9581L40.0037 21.5702Z" fill="#262626" stroke="#B9B9B9" stroke-width="0.186047" stroke-linecap="round" stroke-linejoin="round"/>
</svg>
